<svg xmlns="http://www.w3.org/2000/svg" viewBox="0 0 480 100">
  <g transform="translate(10,5) scale(0.15625)">
    <path fill="#1A1A1A" d="M256,130 C242,126 214,114 192,102 C174,92 158,76 144,70 C132,75 114,96 100,120 C84,148 74,180 68,214 C62,250 62,288 68,322 C74,358 86,392 106,420 C126,448 154,470 186,484 C210,494 234,498 256,498 C278,498 302,494 326,484 C358,470 386,448 406,420 C426,392 438,358 444,322 C450,288 450,250 444,214 C438,180 428,148 412,120 C398,96 380,75 368,70 C354,76 338,92 320,102 C298,114 270,126 256,130Z"/>
    <circle cx="180" cy="272" r="72" fill="#F5F5F0"/>
    <circle cx="332" cy="272" r="72" fill="#F5F5F0"/>
    <circle cx="190" cy="276" r="29" fill="#1A1A1A"/>
    <circle cx="322" cy="276" r="29" fill="#1A1A1A"/>
    <polygon points="246,348 266,348 256,368" fill="#F5F5F0"/>
  </g>
  <text x="105" y="66" font-family="system-ui, -apple-system, sans-serif" font-size="48" font-weight="400" fill="#1A1A1A" letter-spacing="-1">ownspce</text>
</svg>
